<svg preserveAspectRatio="xMidYMid meet" data-bbox="30 46.5 140 106.999" viewBox="30 46.5 140 106.999" height="200" width="200" xmlns="http://www.w3.org/2000/svg" data-type="color" role="presentation" aria-hidden="true">
    <g>
        <path fill="#3092FC" d="M169.226 84.228l-9.384 2.116-5.026-7.791 6.278-6.93L170 75.131l-.774 9.097z" data-color="1"></path>
        <path fill="#3092FC" d="M64.266 102.2l-22.315 5.031L30 88.704l14.928-16.478 21.178 8.341-1.84 21.633z" data-color="1"></path>
        <path fill="#E8E6E6" d="M125.499 53.975l12.035 4.866-.663 30.795-27.247-3.443-.706 28.458-35.12-6.04-3.61 27.338-8.769-6.478 1.456-32.368 34.673 4.099 1.977-26.531 26.409 2.678-.435-23.374z" data-color="2"></path>
        <path fill="#70BF44" d="M117.757 46.5l12.034 4.865-.662 30.796-27.247-3.444-.706 28.458-35.12-6.039-3.61 27.338-8.77-6.479 1.457-32.368 34.673 4.099 1.977-26.531 26.409 2.678-.435-23.373z" data-color="3"></path>
        <path d="M56.268 94.405c-.046-.386.241-.731.644-.779l2.274-.257-.017-.158-1.473-2.182a.68.68 0 0 1 .229-.966.79.79 0 0 1 .19-.084l.58.068.076.05c.067.05.126.108.175.182l2.2 3.266a.666.666 0 0 1 .043.673.743.743 0 0 1-.579.396l-1.244.143-2.274.257c-.404.047-.774-.228-.824-.609z" fill="#E8E6E6" data-color="2"></path>
        <path d="M55.759 100.631c-.112.37-.528.579-.914.47a.731.731 0 0 1-.228-.11l.085-1.872.071-1.662.065-1.403 1.433.194a.737.737 0 0 1 .518.315.655.655 0 0 1 .08.577l-1.11 3.491z" fill="#E8E6E6" data-color="2"></path>
        <path d="M63.421 96.987c-.592.068-1.121-.324-1.189-.88-.072-.552.347-1.057.93-1.125.583-.068 1.117.328 1.185.884.072.552-.343 1.053-.926 1.121z" fill="#E8E6E6" data-color="2"></path>
        <path d="M98.396 67.896a.27.27 0 0 1 .074-.025l.934.096c.13.088.239.204.312.343.245.459.052 1.021-.437 1.249-.485.232-1.079.049-1.32-.414-.246-.459-.048-1.017.437-1.249z" fill="#E8E6E6" data-color="2"></path>
        <path d="M65.93 102.085l-3.904-.081c-.402-.009-.728-.332-.718-.712.01-.388.346-.693.757-.684l4.524.1c.381.004.694.29.716.643l-1.249-.215-.126.949z" fill="#E8E6E6" data-color="2"></path>
        <path d="M117.936 56.35l-.044-2.389.415-.691a.658.658 0 0 1 .87-.232.59.59 0 0 1 .241.827l-1.482 2.485z" fill="#E8E6E6" data-color="2"></path>
        <path d="M74.509 93.184a1.023 1.023 0 0 1 1.392-.07.896.896 0 0 1 .079 1.313c-.365.385-.99.419-1.392.079a.905.905 0 0 1-.079-1.322z" fill="#E8E6E6" data-color="2"></path>
        <path d="M120.503 50.259c.56-.846 1.805-1.559 3.615-1.041.221.062.434.099.622.103l1.855.753c-.583.55-1.553.872-2.904.486-.875-.254-1.581-.092-1.936.443-.289.427-.242.978.108 1.342a.676.676 0 0 1-.041.987.769.769 0 0 1-1.047-.043 2.408 2.408 0 0 1-.272-3.03z" fill="#E8E6E6" data-color="2"></path>
        <path d="M99.223 75.321l-4.076 1.853c-.462-.01-.903-.158-1.083-.502-.175-.348-.024-.77.299-1.021l4.08-1.857c.4-.1.842.039 1.021.391.18.344.025.762-.241 1.136z" fill="#E8E6E6" data-color="2"></path>
        <path d="M117.937 56.476l2.806.353c.35.048.595.349.548.684-.047.327-.369.563-.719.514l-2.61-.333-.025-1.218z" fill="#E8E6E6" data-color="2"></path>
        <path d="M70.49 96.22l3.388.682a.726.726 0 0 1 .492.355.65.65 0 0 1 .046.576l-1.363 3.414c-.142.365-.57.546-.951.408a.69.69 0 0 1-.431-.9l1.062-2.652-3.35-.677a.762.762 0 0 1-.488-.335.697.697 0 0 1-.063-.568l1.119-3.234-2.758-.405a.701.701 0 0 1-.618-.795c.065-.383.439-.642.84-.585l3.623.533a.75.75 0 0 1 .518.323c.111.176.14.388.071.584L70.49 96.22z" fill="#E8E6E6" data-color="2"></path>
        <path d="M78.319 96.713a.674.674 0 0 1-.053-.989l2.011-2.101-2.001-1.262 3.289.392.249.155a.7.7 0 0 1 .326.497.69.69 0 0 1-.185.554l-2.591 2.703a.769.769 0 0 1-1.045.051z" fill="#E8E6E6" data-color="2"></path>
        <path d="M59.092 115.721a.777.777 0 0 1-1.042-.088l-2.351-2.663a.692.692 0 0 1-.161-.566.696.696 0 0 1 .358-.482l3.136-1.756-2.066-2.628a.656.656 0 0 1-.127-.565.722.722 0 0 1 .371-.469l3.405-1.714c.36-.182.81-.051.998.293a.68.68 0 0 1-.301.945l-2.647 1.33 2.041 2.603a.677.677 0 0 1-.217 1.019l-3.097 1.729 1.794 2.027a.677.677 0 0 1-.094.985z" fill="#E8E6E6" data-color="2"></path>
        <path d="M118.063 63.007l-.033-1.591 2.448 1.191a.683.683 0 0 1 .319.938.765.765 0 0 1-.996.306l-1.738-.844z" fill="#E8E6E6" data-color="2"></path>
        <path d="M104.875 75.454a1.045 1.045 0 0 0-.922.611c-.19.417-.194 1.101.371 1.769.328.384.555.818.684 1.279l-1.704-.215a1.021 1.021 0 0 0-.132-.19c-.819-.961-1.041-2.192-.571-3.202.389-.841 1.202-1.386 2.17-1.446.407-.027.759.264.788.649.031.384-.277.718-.684.745z" fill="#E8E6E6" data-color="2"></path>
        <path d="M58.738 122.084c-.541.061-1.028-.306-1.096-.813-.064-.511.323-.972.864-1.033.536-.065 1.028.298 1.092.809.064.511-.319.976-.86 1.037z" fill="#E8E6E6" data-color="2"></path>
        <path d="M113.228 72.926l-3.543.889a.77.77 0 0 1-.609-.098.683.683 0 0 1-.313-.509l-.356-3.428-3.392.658a.786.786 0 0 1-.6-.131.701.701 0 0 1-.287-.516l-.083-1.352 5.77.583.335 3.233 2.695-.677c.392-.101.801.123.903.498.108.371-.128.75-.52.85z" fill="#E8E6E6" data-color="2"></path>
        <path d="M118.137 67.085l-.039-1.895c.818.297 1.4 1.006 1.602 2.011.072.378-.185.745-.589.817-.404.072-.791-.179-.863-.557a1.84 1.84 0 0 0-.111-.376z" fill="#E8E6E6" data-color="2"></path>
        <path d="M124.359 56.958a.749.749 0 0 1 .975.353l1.471 3.149 2.336-2.26a.768.768 0 0 1 .507-.205l-.038 1.765-2.509 2.411a.75.75 0 0 1-.659.2.722.722 0 0 1-.546-.401l-1.914-4.094a.683.683 0 0 1 .377-.918z" fill="#E8E6E6" data-color="2"></path>
        <path d="M63.73 118.744l-.225 1.702-1.545-1.352a.663.663 0 0 1-.04-.984.759.759 0 0 1 1.04-.038l.77.672z" fill="#E8E6E6" data-color="2"></path>
        <path d="M83.127 103.169c-.376.34-.818.565-1.283.684l-3.075-.53a2.774 2.774 0 0 1-.341-.262c-1.085-.951-1.128-2.32-.107-3.479a.76.76 0 0 1 1.038-.09.671.671 0 0 1 .096.982c-.519.596-.524 1.122-.022 1.57.67.59 1.953.768 2.675.116a.77.77 0 0 1 1.043.023.667.667 0 0 1-.024.986z" fill="#E8E6E6" data-color="2"></path>
        <path d="M97.707 83.541l-3.396.654a.747.747 0 0 1-.596-.135.682.682 0 0 1-.287-.516l-.193-3.639c-.02-.385.296-.718.703-.737.407-.019.75.28.771.665l.153 2.829 3.357-.642a.792.792 0 0 1 .587.126.694.694 0 0 1 .296.492l.34 3.387 2.272-.568-.036 1.452-2.703.676a.747.747 0 0 1-.613-.103.688.688 0 0 1-.313-.509l-.342-3.432z" fill="#E8E6E6" data-color="2"></path>
        <path d="M87.426 95.355c-.18.344-.624.484-.992.31a.68.68 0 0 1-.328-.938 2.986 2.986 0 0 1 1.362-1.277l2.333.274.045-.594c.251.042.494.108.718.198 1.364.556 1.893 1.827 1.349 3.244-.137.361-.565.55-.947.42-.386-.134-.581-.535-.444-.896.279-.726.094-1.224-.537-1.485-.842-.339-2.11-.096-2.559.744z" fill="#E8E6E6" data-color="2"></path>
        <path d="M123.783 65.943c.293-.431.904-.555 1.363-.273a.902.902 0 0 1 .293 1.285 1.022 1.022 0 0 1-1.363.282c-.46-.282-.591-.86-.293-1.294z" fill="#E8E6E6" data-color="2"></path>
        <path d="M111.319 79.397c.116.164.15.347.115.529l-1.892-.24.755-.481c.339-.212.799-.129 1.022.192z" fill="#E8E6E6" data-color="2"></path>
        <path d="M95.298 94.125l-2.418-3.623a.68.68 0 0 1 .233-.962.767.767 0 0 1 1.021.217l2.409 3.623c.223.329.118.755-.229.966a.764.764 0 0 1-1.016-.221z" fill="#E8E6E6" data-color="2"></path>
        <path d="M62.446 128.474l-3.548-2.618c.442-.043.941.005 1.493.162.773.219 1.358.095 1.6-.353.202-.38.131-.989-.403-1.369a.68.68 0 0 1-.147-.983.759.759 0 0 1 1.034-.135c.231.163.432.364.593.574l-.622 4.722z" fill="#E8E6E6" data-color="2"></path>
        <path d="M87.608 104.842l-1.48-.254.384-.308s.887.127 1.066.471c.018.025.023.059.03.091z" fill="#E8E6E6" data-color="2"></path>
        <path d="M97.582 97.283c.061.467-.296.892-.789.95-.493.058-.943-.28-1.004-.747-.057-.471.296-.892.789-.95.493-.057.947.277 1.004.747z" fill="#E8E6E6" data-color="2"></path>
        <path d="M126.753 69.691l2.672-1.314-.034 1.59-1.958.962a.752.752 0 0 1-.994-.297.685.685 0 0 1 .314-.941z" fill="#E8E6E6" data-color="2"></path>
        <path d="M100.317 95.66a.66.66 0 0 1-.255-.609l.55-4.444c.044-.388.414-.659.819-.613.06.009.118.019.169.037l-.14 5.657-.471.117a.76.76 0 0 1-.672-.145z" fill="#E8E6E6" data-color="2"></path>
        <path d="M118.068 72.867l3.191-1.18a.756.756 0 0 1 .594.025c.19.089.328.25.387.442l1.065 3.5 2.518-1.143c.278-.346.715-.195.886.157.171.352.011.765-.389.874l-3.305 1.498a.729.729 0 0 1-.616.003.704.704 0 0 1-.4-.446l-.966-3.328-3.221 1.2a.813.813 0 0 1-.615-.03.727.727 0 0 1-.378-.466l-.858-3.552a.694.694 0 0 1 .313-.742l.939.094a.697.697 0 0 1 .188.336l.667 2.758z" fill="#E8E6E6" data-color="2"></path>
        <path d="M94.715 105.805l-.611.157-3.936-.678-.269-2.629-3.392.658a.747.747 0 0 1-.6-.131.664.664 0 0 1-.287-.516l-.201-3.639c-.025-.389.287-.718.694-.737.407-.019.755.276.779.665l.157 2.833 3.353-.655a.767.767 0 0 1 .592.122.671.671 0 0 1 .291.496l.353 3.383 2.695-.677c.392-.101.801.123.908.494.102.374-.134.753-.526.854z" fill="#E8E6E6" data-color="2"></path>
        <path d="M119.286 79.662l2.713.319c.405.053.692.396.639.783a.706.706 0 0 1-.385.53l-4.956-.627a.532.532 0 0 1-.124-.181.661.661 0 0 1 .047-.675l.683-.997 1.238-1.822c.218-.323.678-.414 1.019-.208.346.21.446.641.224.968l-1.243 1.818.145.092z" fill="#E8E6E6" data-color="2"></path>
        <path d="M101.305 101.737a.709.709 0 0 1-.559.623l-3.034.722c-.4.092-.797-.135-.899-.51a.706.706 0 0 1 .539-.85l3.038-.718a.745.745 0 0 1 .899.51c.008.033.011.061.019.094l-.003.129z" fill="#E8E6E6" data-color="2"></path>
        <path d="M59.295 103.006a.674.674 0 0 0 .202-.969.766.766 0 0 0-1.025-.192l-2.6 1.649a.674.674 0 0 0-.202.968.763.763 0 0 0 1.025.192l2.6-1.648z" fill="#E8E6E6" data-color="2"></path>
        <path d="M63.011 109.853c.541-.062 1.03.302 1.096.813.065.511-.32.975-.86 1.037-.54.061-1.031-.303-1.096-.814-.065-.51.32-.975.86-1.036z" fill="#E8E6E6" data-color="2"></path>
        <path d="M93.921 87.766c-.527.249-1.168.047-1.432-.451s-.051-1.105.476-1.355c.526-.25 1.168-.048 1.431.45.264.5.052 1.105-.475 1.356z" fill="#E8E6E6" data-color="2"></path>
        <path d="M128.607 56.092c-.445.211-.988.04-1.211-.382-.224-.422-.042-.934.403-1.146.446-.212.988-.041 1.211.381.223.423.043.936-.403 1.147z" fill="#E8E6E6" data-color="2"></path>
        <path d="M96.666 72.804l-1.244.143-2.274.257c-.403.048-.773-.228-.823-.609-.046-.386.241-.731.644-.779l2.274-.257-.018-.159-1.473-2.182a.68.68 0 0 1 .229-.966.755.755 0 0 1 .186-.081.796.796 0 0 1 .584.066l.076.05c.067.05.126.108.175.182l2.2 3.266a.666.666 0 0 1 .043.673.741.741 0 0 1-.579.396z" fill="#E8E6E6" data-color="2"></path>
        <path d="M126.722 80.152c-.592.068-1.121-.324-1.189-.88-.072-.552.347-1.057.93-1.125.583-.068 1.117.328 1.185.884.072.552-.343 1.052-.926 1.121z" fill="#E8E6E6" data-color="2"></path>
        <path d="M113.612 79.536a2.504 2.504 0 0 1-1.265-.839 3.64 3.64 0 0 1-.571-1.011c-.306-.816-.864-1.256-1.529-1.207-.535.041-.975.399-1.075.882-.076.383-.464.627-.862.556-.397-.076-.663-.439-.587-.821.224-1.096 1.215-1.921 2.416-2.01.728-.056 1.6.179 2.279.9.3.31.557.718.752 1.232.274.718.729 1.088 1.253 1.006.443-.073.918-.489.922-1.121.003-.389.342-.699.747-.697.411.003.74.318.731.706a2.535 2.535 0 0 1-.131.786 2.563 2.563 0 0 1-2.022 1.703 2.504 2.504 0 0 1-1.058-.065z" fill="#E8E6E6" data-color="2"></path>
        <path d="M90.127 100.196c-.541.061-1.028-.306-1.096-.813-.064-.511.323-.972.864-1.033.536-.065 1.028.298 1.092.809.064.511-.32.976-.86 1.037z" fill="#E8E6E6" data-color="2"></path>
        <path fill="#3092FC" d="M134.278 142.939l-5.385.752-13.953-89.448 5.385-.752 13.953 89.448z" data-color="4"></path>
        <path d="M53.428 136.779c4.035 3.844 4.012 10.055-.051 13.872s-10.627 3.795-14.662-.049-4.012-10.055.051-13.872 10.628-3.795 14.662.049z" fill="#3092FC" data-color="4"></path>
    </g>
</svg>